<svg width="162" height="51" viewBox="0 0 162 51" fill="none" xmlns="http://www.w3.org/2000/svg">
<path d="M3.204 34.02C2.148 34.02 1.344 33.732 0.792 33.156C0.264 32.58 0 31.824 0 30.888C0 29.808 0.3 28.944 0.9 28.296C1.524 27.648 2.388 27.324 3.492 27.324C4.548 27.324 5.34 27.588 5.868 28.116C6.42 28.62 6.696 29.376 6.696 30.384C6.696 31.488 6.384 32.376 5.76 33.048C5.136 33.696 4.284 34.02 3.204 34.02Z" fill="black"/>
<path d="M12.1705 34.02C11.2585 34.02 10.6105 33.54 10.2265 32.58C9.86653 31.62 9.68653 30.084 9.68653 27.972C9.68653 24.852 10.1305 21.888 11.0185 19.08C11.2345 18.384 11.5825 17.88 12.0625 17.568C12.5665 17.232 13.2625 17.064 14.1505 17.064C14.6305 17.064 14.9665 17.124 15.1585 17.244C15.3505 17.364 15.4465 17.592 15.4465 17.928C15.4465 18.312 15.2665 19.176 14.9065 20.52C14.6665 21.48 14.4745 22.32 14.3305 23.04C14.1865 23.76 14.0665 24.648 13.9705 25.704C14.7625 23.64 15.6505 21.96 16.6345 20.664C17.6185 19.368 18.5785 18.444 19.5145 17.892C20.4745 17.34 21.3505 17.064 22.1425 17.064C23.7025 17.064 24.4825 17.844 24.4825 19.404C24.4825 19.716 24.3745 20.472 24.1585 21.672C23.9665 22.632 23.8705 23.232 23.8705 23.472C23.8705 24.312 24.1705 24.732 24.7705 24.732C25.4425 24.732 26.3065 24.204 27.3625 23.148C27.6745 22.836 27.9985 22.68 28.3345 22.68C28.6465 22.68 28.8865 22.824 29.0545 23.112C29.2465 23.376 29.3425 23.736 29.3425 24.192C29.3425 25.08 29.1025 25.776 28.6225 26.28C27.9505 26.976 27.1585 27.576 26.2465 28.08C25.3585 28.56 24.4105 28.8 23.4025 28.8C22.1305 28.8 21.1585 28.476 20.4865 27.828C19.8385 27.18 19.5145 26.304 19.5145 25.2C19.5145 24.84 19.5505 24.48 19.6225 24.12C19.6705 23.64 19.6945 23.316 19.6945 23.148C19.6945 22.764 19.5625 22.572 19.2985 22.572C18.9385 22.572 18.4585 22.98 17.8585 23.796C17.2825 24.588 16.7065 25.644 16.1305 26.964C15.5545 28.284 15.0865 29.676 14.7265 31.14C14.4625 32.268 14.1505 33.036 13.7905 33.444C13.4545 33.828 12.9145 34.02 12.1705 34.02Z" fill="black"/>
<path d="M42.0533 25.812C42.3653 25.812 42.6053 25.956 42.7733 26.244C42.9653 26.532 43.0613 26.928 43.0613 27.432C43.0613 28.392 42.8333 29.136 42.3773 29.664C41.4893 30.744 40.2293 31.74 38.5973 32.652C36.9893 33.564 35.2613 34.02 33.4133 34.02C30.8933 34.02 28.9373 33.336 27.5453 31.968C26.1533 30.6 25.4573 28.728 25.4573 26.352C25.4573 24.696 25.8053 23.16 26.5013 21.744C27.1973 20.304 28.1573 19.164 29.3813 18.324C30.6293 17.484 32.0333 17.064 33.5933 17.064C34.9853 17.064 36.1013 17.484 36.9413 18.324C37.7813 19.14 38.2013 20.256 38.2013 21.672C38.2013 23.328 37.6013 24.756 36.4013 25.956C35.2253 27.132 33.2213 28.068 30.3893 28.764C30.9893 29.868 32.1293 30.42 33.8093 30.42C34.8893 30.42 36.1133 30.048 37.4813 29.304C38.8733 28.536 40.0733 27.54 41.0813 26.316C41.3693 25.98 41.6933 25.812 42.0533 25.812ZM32.9813 20.592C32.0933 20.592 31.3373 21.108 30.7133 22.14C30.1133 23.172 29.8133 24.42 29.8133 25.884V25.956C31.2293 25.62 32.3453 25.116 33.1613 24.444C33.9773 23.772 34.3853 22.992 34.3853 22.104C34.3853 21.648 34.2533 21.288 33.9893 21.024C33.7493 20.736 33.4133 20.592 32.9813 20.592Z" fill="black"/>
<path d="M46.8262 34.812C45.5782 34.812 44.6182 34.524 43.9462 33.948C43.2982 33.372 42.9742 32.724 42.9742 32.004C42.9742 31.38 43.2022 30.84 43.6582 30.384C44.1142 29.928 44.7862 29.7 45.6742 29.7C45.9862 29.7 46.3462 29.736 46.7542 29.808C47.1862 29.856 47.5102 29.892 47.7262 29.916C47.7022 29.292 47.5582 28.704 47.2942 28.152C47.0542 27.6 46.7422 27.072 46.3582 26.568C45.9742 26.04 45.6142 25.584 45.2782 25.2C44.5342 26.616 43.7902 27.792 43.0462 28.728C42.3262 29.664 41.5342 30.552 40.6702 31.392C40.2382 31.824 39.7822 32.04 39.3022 32.04C38.9182 32.04 38.6062 31.908 38.3662 31.644C38.1262 31.356 38.0062 31.008 38.0062 30.6C38.0062 30.12 38.1742 29.676 38.5102 29.268L38.9782 28.692C40.2982 27.06 41.2942 25.716 41.9662 24.66C42.3742 23.964 42.8542 23.04 43.4062 21.888C43.9582 20.712 44.4982 19.5 45.0262 18.252C45.4822 17.196 46.4302 16.668 47.8702 16.668C48.5422 16.668 49.0102 16.728 49.2742 16.848C49.5382 16.968 49.6702 17.16 49.6702 17.424C49.6702 17.568 49.6222 17.796 49.5262 18.108C49.4302 18.42 49.2982 18.732 49.1302 19.044C48.6982 19.908 48.4822 20.64 48.4822 21.24C48.4822 21.6 48.6022 21.996 48.8422 22.428C49.1062 22.86 49.5022 23.4 50.0302 24.048C50.7982 25.056 51.3742 25.92 51.7582 26.64C52.1662 27.336 52.3702 28.104 52.3702 28.944C52.3702 29.184 52.3462 29.52 52.2982 29.952C53.4742 29.496 54.8542 28.284 56.4382 26.316C56.7262 25.98 57.0502 25.812 57.4102 25.812C57.7222 25.812 57.9622 25.956 58.1302 26.244C58.3222 26.532 58.4182 26.928 58.4182 27.432C58.4182 28.344 58.1902 29.088 57.7342 29.664C56.5342 31.152 55.3822 32.172 54.2782 32.724C53.1982 33.252 51.8542 33.54 50.2462 33.588C49.2862 34.404 48.1462 34.812 46.8262 34.812Z" fill="black"/>
<path d="M71.5494 25.812C71.8614 25.812 72.1014 25.956 72.2694 26.244C72.4614 26.532 72.5574 26.928 72.5574 27.432C72.5574 28.392 72.3294 29.136 71.8734 29.664C70.8414 30.936 69.7134 31.98 68.4894 32.796C67.2654 33.612 65.8614 34.02 64.2774 34.02C59.3814 34.02 56.9334 30.576 56.9334 23.688C56.9334 22.632 56.9694 21.564 57.0414 20.484H55.6374C54.9174 20.484 54.4254 20.352 54.1614 20.088C53.9214 19.824 53.8014 19.404 53.8014 18.828C53.8014 17.484 54.3414 16.812 55.4214 16.812H57.4734C57.8814 14.172 58.5054 11.76 59.3454 9.576C60.1854 7.392 61.1934 5.652 62.3694 4.356C63.5694 3.06 64.8534 2.412 66.2214 2.412C67.2294 2.412 68.0214 2.856 68.5974 3.744C69.1734 4.632 69.4614 5.748 69.4614 7.092C69.4614 10.812 67.9014 14.052 64.7814 16.812H68.8134C69.1974 16.812 69.4734 16.896 69.6414 17.064C69.8094 17.232 69.8934 17.544 69.8934 18C69.8934 19.656 68.5374 20.484 65.8254 20.484H61.4334C61.3854 21.684 61.3614 22.62 61.3614 23.292C61.3614 25.788 61.6494 27.54 62.2254 28.548C62.8254 29.556 63.7614 30.06 65.0334 30.06C66.0654 30.06 66.9774 29.748 67.7694 29.124C68.5614 28.5 69.4974 27.564 70.5774 26.316C70.8654 25.98 71.1894 25.812 71.5494 25.812ZM65.2494 5.868C64.8894 5.868 64.4814 6.324 64.0254 7.236C63.5934 8.124 63.1734 9.372 62.7654 10.98C62.3814 12.564 62.0574 14.328 61.7934 16.272C63.2094 15.048 64.2654 13.68 64.9614 12.168C65.6814 10.632 66.0414 9.24 66.0414 7.992C66.0414 6.576 65.7774 5.868 65.2494 5.868Z" fill="black"/>
<path d="M87.9863 22.788C88.2983 22.788 88.5383 22.944 88.7063 23.256C88.8743 23.568 88.9583 23.964 88.9583 24.444C88.9583 25.596 88.6103 26.28 87.9143 26.496C86.4743 27 84.8903 27.288 83.1623 27.36C82.7063 29.376 81.8063 30.996 80.4622 32.22C79.1182 33.42 77.5943 34.02 75.8903 34.02C74.4503 34.02 73.2143 33.672 72.1823 32.976C71.1743 32.28 70.4063 31.356 69.8783 30.204C69.3503 29.052 69.0863 27.804 69.0863 26.46C69.0863 24.636 69.4342 23.016 70.1302 21.6C70.8262 20.16 71.7863 19.044 73.0103 18.252C74.2343 17.436 75.5902 17.028 77.0782 17.028C78.9022 17.028 80.3663 17.664 81.4703 18.936C82.5983 20.184 83.2582 21.732 83.4502 23.58C84.5782 23.508 85.9223 23.268 87.4823 22.86C87.6743 22.812 87.8423 22.788 87.9863 22.788ZM76.1783 30.204C76.9463 30.204 77.6062 29.892 78.1582 29.268C78.7342 28.644 79.1182 27.744 79.3102 26.568C78.5662 26.064 77.9903 25.404 77.5823 24.588C77.1983 23.772 77.0062 22.908 77.0062 21.996C77.0062 21.612 77.0423 21.228 77.1143 20.844H76.9342C75.9742 20.844 75.1702 21.312 74.5222 22.248C73.8982 23.16 73.5863 24.456 73.5863 26.136C73.5863 27.456 73.8382 28.464 74.3422 29.16C74.8702 29.856 75.4823 30.204 76.1783 30.204Z" fill="black"/>
<path d="M99.5124 25.812C99.8244 25.812 100.064 25.956 100.232 26.244C100.424 26.532 100.52 26.928 100.52 27.432C100.52 28.392 100.292 29.136 99.8364 29.664C98.8044 30.936 97.6764 31.98 96.4524 32.796C95.2524 33.612 93.8844 34.02 92.3484 34.02C90.2364 34.02 88.6644 33.06 87.6324 31.14C86.6244 29.22 86.1204 26.736 86.1204 23.688C86.1204 20.76 86.4924 17.424 87.2364 13.68C88.0044 9.936 89.1204 6.72 90.5844 4.032C92.0724 1.344 93.8364 0 95.8764 0C97.0284 0 97.9284 0.54 98.5764 1.62C99.2484 2.676 99.5844 4.2 99.5844 6.192C99.5844 9.048 98.7924 12.36 97.2084 16.128C95.6244 19.896 93.4764 23.628 90.7644 27.324C90.9324 28.308 91.2084 29.016 91.5924 29.448C91.9764 29.856 92.4804 30.06 93.1044 30.06C94.0884 30.06 94.9524 29.784 95.6964 29.232C96.4404 28.656 97.3884 27.684 98.5404 26.316C98.8284 25.98 99.1524 25.812 99.5124 25.812ZM95.0844 3.564C94.5324 3.564 93.9084 4.56 93.2124 6.552C92.5164 8.544 91.9044 11.016 91.3764 13.968C90.8484 16.92 90.5604 19.752 90.5124 22.464C92.2164 19.656 93.5724 16.848 94.5804 14.04C95.5884 11.208 96.0924 8.628 96.0924 6.3C96.0924 4.476 95.7564 3.564 95.0844 3.564Z" fill="black"/>
<path d="M115.971 22.788C116.283 22.788 116.523 22.944 116.691 23.256C116.859 23.568 116.943 23.964 116.943 24.444C116.943 25.596 116.595 26.28 115.899 26.496C114.459 27 112.875 27.288 111.147 27.36C110.691 29.376 109.791 30.996 108.447 32.22C107.103 33.42 105.579 34.02 103.875 34.02C102.435 34.02 101.199 33.672 100.167 32.976C99.1586 32.28 98.3906 31.356 97.8626 30.204C97.3346 29.052 97.0706 27.804 97.0706 26.46C97.0706 24.636 97.4186 23.016 98.1146 21.6C98.8106 20.16 99.7706 19.044 100.995 18.252C102.219 17.436 103.575 17.028 105.063 17.028C106.887 17.028 108.351 17.664 109.455 18.936C110.583 20.184 111.243 21.732 111.435 23.58C112.563 23.508 113.907 23.268 115.467 22.86C115.659 22.812 115.827 22.788 115.971 22.788ZM104.163 30.204C104.931 30.204 105.591 29.892 106.143 29.268C106.719 28.644 107.103 27.744 107.295 26.568C106.551 26.064 105.975 25.404 105.567 24.588C105.183 23.772 104.991 22.908 104.991 21.996C104.991 21.612 105.027 21.228 105.099 20.844H104.919C103.959 20.844 103.155 21.312 102.507 22.248C101.883 23.16 101.571 24.456 101.571 26.136C101.571 27.456 101.823 28.464 102.327 29.16C102.855 29.856 103.467 30.204 104.163 30.204Z" fill="black"/>
<path d="M132.285 25.884C132.597 25.884 132.837 26.04 133.005 26.352C133.197 26.64 133.293 27.012 133.293 27.468C133.293 28.02 133.209 28.452 133.041 28.764C132.873 29.076 132.609 29.352 132.249 29.592C130.185 30.984 128.673 32.016 127.713 32.688L125.409 34.236C124.497 39.204 123.297 43.104 121.809 45.936C120.345 48.792 118.473 50.22 116.193 50.22C114.969 50.22 113.973 49.836 113.205 49.068C112.437 48.324 112.053 47.34 112.053 46.116C112.053 44.412 112.725 42.576 114.069 40.608C115.413 38.664 117.933 36.264 121.629 33.408L121.845 32.004C121.437 32.652 120.897 33.156 120.225 33.516C119.577 33.852 118.929 34.02 118.281 34.02C116.793 34.02 115.605 33.48 114.717 32.4C113.829 31.32 113.385 29.904 113.385 28.152C113.385 26.232 113.829 24.42 114.717 22.716C115.605 20.988 116.781 19.608 118.245 18.576C119.733 17.52 121.305 16.992 122.961 16.992C123.489 16.992 123.837 17.1 124.005 17.316C124.197 17.508 124.353 17.868 124.473 18.396C124.929 18.3 125.457 18.252 126.057 18.252C126.657 18.252 127.077 18.348 127.317 18.54C127.581 18.708 127.713 19.056 127.713 19.584C127.713 19.872 127.701 20.1 127.677 20.268C127.581 21.012 127.281 22.896 126.777 25.92C126.681 26.496 126.573 27.132 126.453 27.828C126.357 28.5 126.249 29.22 126.129 29.988C127.977 28.548 129.753 27.276 131.457 26.172C131.769 25.98 132.045 25.884 132.285 25.884ZM119.577 30.384C120.129 30.384 120.657 30.048 121.161 29.376C121.665 28.704 122.025 27.744 122.241 26.496L123.393 20.34C122.409 20.364 121.497 20.748 120.657 21.492C119.817 22.212 119.145 23.172 118.641 24.372C118.137 25.572 117.885 26.844 117.885 28.188C117.885 28.932 118.029 29.484 118.317 29.844C118.629 30.204 119.049 30.384 119.577 30.384ZM116.589 46.728C117.189 46.728 117.861 46.008 118.605 44.568C119.373 43.128 120.105 40.836 120.801 37.692C118.953 39.276 117.621 40.704 116.805 41.976C115.989 43.248 115.581 44.364 115.581 45.324C115.581 45.732 115.653 46.068 115.797 46.332C115.965 46.596 116.229 46.728 116.589 46.728Z" fill="black"/>
<path d="M134.365 34.02C133.285 34.02 132.397 33.528 131.701 32.544C131.029 31.536 130.693 30.288 130.693 28.8C130.693 27 130.813 25.356 131.053 23.868C131.293 22.356 131.689 20.76 132.241 19.08C132.481 18.36 132.817 17.844 133.249 17.532C133.681 17.22 134.365 17.064 135.301 17.064C135.829 17.064 136.189 17.148 136.381 17.316C136.597 17.484 136.705 17.736 136.705 18.072C136.705 18.264 136.573 18.912 136.309 20.016C136.069 20.904 135.877 21.708 135.733 22.428C135.253 24.948 135.013 26.628 135.013 27.468C135.013 27.972 135.073 28.332 135.193 28.548C135.313 28.74 135.505 28.836 135.769 28.836C136.129 28.836 136.573 28.476 137.101 27.756C137.653 27.036 138.229 25.944 138.829 24.48C139.453 23.016 140.053 21.216 140.629 19.08C140.821 18.36 141.109 17.844 141.493 17.532C141.901 17.22 142.501 17.064 143.293 17.064C143.845 17.064 144.229 17.136 144.445 17.28C144.661 17.4 144.769 17.64 144.769 18C144.769 18.6 144.469 20.244 143.869 22.932C143.197 26.004 142.861 27.9 142.861 28.62C142.861 29.076 142.957 29.436 143.149 29.7C143.341 29.94 143.593 30.06 143.905 30.06C144.385 30.06 144.949 29.772 145.597 29.196C146.269 28.596 147.157 27.636 148.261 26.316C148.549 25.98 148.873 25.812 149.233 25.812C149.545 25.812 149.785 25.956 149.953 26.244C150.145 26.532 150.241 26.928 150.241 27.432C150.241 28.392 150.013 29.136 149.557 29.664C148.525 30.936 147.409 31.98 146.209 32.796C145.033 33.612 143.689 34.02 142.177 34.02C141.025 34.02 140.173 33.576 139.621 32.688C139.093 31.8 138.829 30.552 138.829 28.944C138.421 30.576 137.809 31.836 136.993 32.724C136.177 33.588 135.301 34.02 134.365 34.02Z" fill="black"/>
<path d="M160.21 26.892C160.522 26.892 160.762 27.036 160.93 27.324C161.122 27.612 161.218 28.008 161.218 28.512C161.218 29.376 161.014 30.12 160.606 30.744C159.934 31.776 159.046 32.58 157.942 33.156C156.862 33.732 155.566 34.02 154.054 34.02C151.75 34.02 149.962 33.336 148.69 31.968C147.418 30.576 146.782 28.704 146.782 26.352C146.782 24.696 147.13 23.16 147.826 21.744C148.522 20.304 149.482 19.164 150.706 18.324C151.954 17.484 153.358 17.064 154.918 17.064C156.31 17.064 157.426 17.484 158.266 18.324C159.106 19.14 159.526 20.256 159.526 21.672C159.526 23.328 158.926 24.756 157.726 25.956C156.55 27.132 154.534 28.068 151.678 28.764C152.254 29.868 153.226 30.42 154.594 30.42C155.578 30.42 156.382 30.192 157.006 29.736C157.654 29.28 158.398 28.512 159.238 27.432C159.526 27.072 159.85 26.892 160.21 26.892ZM154.306 20.592C153.418 20.592 152.662 21.108 152.038 22.14C151.438 23.172 151.138 24.42 151.138 25.884V25.956C152.554 25.62 153.67 25.116 154.486 24.444C155.302 23.772 155.71 22.992 155.71 22.104C155.71 21.648 155.578 21.288 155.314 21.024C155.074 20.736 154.738 20.592 154.306 20.592Z" fill="black"/>
</svg>
